<svg version="1" xmlns="http://www.w3.org/2000/svg" width="682.667" height="682.667" viewBox="0 0 512.000000 512.000000"><path d="M399 112.5V127H227v28h-29v29h-29v28H55v29H25.9l.3 15.2.3 15.3 57.3.3 57.2.2v28h28.5l-.3 42-.2 42h-27v-57h-29v-29l-28.7.2-28.8.3-.3 14.2-.3 14.3H26v59h29v28h58v-28h28v28h231v-28h27v28h58v-28h29v-59h-29v-27h29v-59h-29v-27h29v-30h-57v-29h-29v-27h29V98h-30v14.5zm-58 58V184h-85v28h-29v29h-27v-56h28v-28h113v13.5zm0 57V241h-84v-27h84v13.5zM456 285v13h-57v29h-29v57h-27v-84h29v-28h84v13zm-144 28.5V327H200v-27h112v13.5zm-200 29V356H84v28H57v-55h55v13.5zm344 14V384h-27v-28h-29v-27h56v27.5zm-144 14V384H200v-27h112v13.5z"/></svg>